<svg width="15" height="15" xmlns="http://www.w3.org/2000/svg">
 <g>
  <title>background</title>
  <rect x="-1" y="-1" width="17" height="17" id="canvas_background" fill="none"/>
 </g>

 <g>
  <title>Layer 1</title>
  <g stroke="null" id="svg_11">
   <g stroke="null" id="svg_9">
    <title stroke="null" transform="translate(0,0.12499935925006866) translate(0,-0.12499935925006866) translate(0,0.12499935925006866) translate(0,0.12499935925006866) translate(0,0.12499935925006866) translate(-0.12499935925006866,0) translate(0.12499935925006866,0) translate(0.12499935925006866,0) translate(0.12499935925006866,0) translate(0.12499935925006866,0) translate(-0.3749980926513672,-0.3749980926513672) translate(-0.12499935925006866,0) translate(0.12499935925006866,0) translate(-1,0) translate(1,0) translate(0,1) translate(1,0) translate(0,1) translate(0,1) translate(1,0) translate(1,0) translate(0,1) translate(0,1) translate(0,1) translate(1,0) translate(1,0) translate(-0.6143450140953064,-0.19052399694919586) scale(1.083332896232605,1.0333331823349) translate(0.6143450140953064,0.19052399694919586) translate(-0.5670879483222961,14.815622329711914) scale(1,1.0322579145431519) translate(0.5670879483222961,-14.815622329711914) translate(-0.5670879483222961,14.352636337280273) scale(1,0.9843750596046448) translate(0.5670879483222961,-14.352636337280273) translate(14.432912826538086,-0.4195454716682434) scale(1) translate(-14.432912826538086,0.4195454716682434) translate(14.432912826538086,-0.4195454716682434) scale(0.992307722568512,1) translate(-14.432912826538086,0.4195454716682434) translate(-0.4552052915096283,-0.4195454716682434) scale(0.9844961762428284,1) translate(0.4552052915096283,0.4195454716682434) translate(-0.46237388253211975,-0.4195454716682434) scale(1.0078740119934082,1) translate(0.46237388253211975,0.4195454716682434) translate(-0.4587615728378296,-0.4195454716682434) scale(1) translate(0.4587615728378296,0.4195454716682434) translate(-0.4587615728378296,-0.4195454716682434) scale(1,1.0079364776611328) translate(0.4587615728378296,0.4195454716682434) ">background</title>
    <rect stroke="null" fill="none" id="svg_7" height="15.874996" width="15.999995" y="-0.440523" x="-0.489346"/>
   </g>
   <g stroke="null" id="svg_10">
    <title stroke="null" transform="translate(0,0.12499935925006866) translate(0,-0.12499935925006866) translate(0,0.12499935925006866) translate(0,0.12499935925006866) translate(0,0.12499935925006866) translate(-0.12499935925006866,0) translate(0.12499935925006866,0) translate(0.12499935925006866,0) translate(0.12499935925006866,0) translate(0.12499935925006866,0) translate(-0.3749980926513672,-0.3749980926513672) translate(-0.12499935925006866,0) translate(0.12499935925006866,0) translate(-1,0) translate(1,0) translate(0,1) translate(1,0) translate(0,1) translate(0,1) translate(1,0) translate(1,0) translate(0,1) translate(0,1) translate(0,1) translate(1,0) translate(1,0) translate(-0.6143450140953064,-0.19052399694919586) scale(1.083332896232605,1.0333331823349) translate(0.6143450140953064,0.19052399694919586) translate(-0.5670879483222961,14.815622329711914) scale(1,1.0322579145431519) translate(0.5670879483222961,-14.815622329711914) translate(-0.5670879483222961,14.352636337280273) scale(1,0.9843750596046448) translate(0.5670879483222961,-14.352636337280273) translate(14.432912826538086,-0.4195454716682434) scale(1) translate(-14.432912826538086,0.4195454716682434) translate(14.432912826538086,-0.4195454716682434) scale(0.992307722568512,1) translate(-14.432912826538086,0.4195454716682434) translate(-0.4552052915096283,-0.4195454716682434) scale(0.9844961762428284,1) translate(0.4552052915096283,0.4195454716682434) translate(-0.46237388253211975,-0.4195454716682434) scale(1.0078740119934082,1) translate(0.46237388253211975,0.4195454716682434) translate(-0.4587615728378296,-0.4195454716682434) scale(1) translate(0.4587615728378296,0.4195454716682434) translate(-0.4587615728378296,-0.4195454716682434) scale(1,1.0079364776611328) translate(0.4587615728378296,0.4195454716682434) ">Layer 1</title>
    <ellipse stroke="#25c6d0" ry="6.879165" rx="6.933331" id="svg_6" cy="7.496975" cx="7.510652" fill="#25c6d0"/>
   </g>
  </g>
  <g stroke="null" stroke-opacity="0" id="svg_1">
   <g stroke="null" id="svg_2">
    <path stroke="#FFFFFFF" stroke-width="4" fill="#FFFFFF" id="svg_1" d="m12.222567,4.70286c-0.156622,-0.194012 -0.410574,-0.194012 -0.567196,0l-4.128132,5.113648l-4.128129,-5.113648c-0.156626,-0.194012 -0.410574,-0.194012 -0.567196,0s-0.156622,0.508592 0,0.702606l4.411731,5.464973c0.156622,0.194014 0.410571,0.194014 0.567193,0l4.411731,-5.464973c0.156622,-0.194036 0.156622,-0.508592 0,-0.702606z"/>
   </g>
  </g>
 </g>
</svg>